g pb_Mesh-6686
v 0.84 -0.9460001 1.049999
v 0.06838 -0.9460001 1.049999
v 0.84 0.0539999 1.049999
v 0.06838 0.0539999 1.049999
v 0.02324843 -0.7168689 0.9365253
v 0.02324843 -0.7168689 0.5080204
v 0.02324843 -0.1751313 0.9365253
v 0.02324843 -0.1751313 0.5080204
v 0.06838 -0.9460001 -0.4612007
v 0.84 -0.9460001 -0.4612007
v 0.06838 0.0539999 -0.4612007
v 0.84 0.0539999 -0.4612007
v 0.84 -0.9460001 -0.4612007
v 0.84 -0.9460001 1.049999
v 0.84 0.0539999 -0.4612007
v 0.84 0.0539999 1.049999
v 0.84 0.0539999 1.049999
v 0.06838 0.0539999 1.049999
v 0.84 0.0539999 -0.4612007
v 0.06838 0.0539999 -0.4612007
v 0.84 -0.9460001 -0.4612007
v 0.06838 -0.9460001 -0.4612007
v 0.84 -0.9460001 1.049999
v 0.06838 -0.9460001 1.049999
v 0.06838 -0.9460001 1.049999
v 0.06838 -0.9460001 -0.4612007
v 0.06832898 -0.7777157 0.9846554
v 0.06832898 -0.7777157 0.4598904
v 0.06838 0.0539999 1.049999
v 0.06838 -0.9460001 1.049999
v 0.06832898 -0.1142845 0.9846554
v 0.06832898 -0.7777157 0.9846554
v 0.06838 -0.9460001 -0.4612007
v 0.06838 0.0539999 -0.4612007
v 0.06832898 -0.7777157 0.4598904
v 0.06832898 -0.1142845 0.4598904
v 0.06838 0.0539999 -0.4612007
v 0.06838 0.0539999 1.049999
v 0.06832898 -0.1142845 0.4598904
v 0.06832898 -0.1142845 0.9846554
v 0.06832898 -0.7777157 0.9846554
v 0.06832898 -0.7777157 0.4598904
v 0.02331126 -0.7777157 0.9846554
v 0.02331126 -0.7777157 0.4598904
v 0.06832898 -0.1142845 0.9846554
v 0.06832898 -0.7777157 0.9846554
v 0.02331126 -0.1142845 0.9846554
v 0.02331126 -0.7777157 0.9846554
v 0.06832898 -0.7777157 0.4598904
v 0.06832898 -0.1142845 0.4598904
v 0.02331126 -0.7777157 0.4598904
v 0.02331126 -0.1142845 0.4598904
v 0.06832898 -0.1142845 0.4598904
v 0.06832898 -0.1142845 0.9846554
v 0.02331126 -0.1142845 0.4598904
v 0.02331126 -0.1142845 0.9846554
v 0.02331126 -0.7777157 0.9846554
v 0.02331126 -0.7777157 0.4598904
v 0.02324843 -0.7168689 0.9365253
v 0.02324843 -0.7168689 0.5080204
v 0.02331126 -0.1142845 0.9846554
v 0.02331126 -0.7777157 0.9846554
v 0.02324843 -0.1751313 0.9365253
v 0.02324843 -0.7168689 0.9365253
v 0.02331126 -0.7777157 0.4598904
v 0.02331126 -0.1142845 0.4598904
v 0.02324843 -0.7168689 0.5080204
v 0.02324843 -0.1751313 0.5080204
v 0.02331126 -0.1142845 0.4598904
v 0.02331126 -0.1142845 0.9846554
v 0.02324843 -0.1751313 0.5080204
v 0.02324843 -0.1751313 0.9365253
v 0 0 0
v 0.0947746 0 0
v 0 -0.1249161 0.3015747
v 0.0947746 -0.1249161 0.3015747
v 0 -0.1249161 0.3015747
v 0.0947746 -0.1249161 0.3015747
v -1.192093E-07 -0.4264903 0.4264908
v 0.0947746 -0.4264903 0.4264908
v -1.192093E-07 -0.4264903 0.4264908
v 0.0947746 -0.4264903 0.4264908
v -1.192093E-07 -0.7280641 0.3015747
v 0.0947746 -0.7280641 0.3015747
v -1.192093E-07 -0.7280641 0.3015747
v 0.0947746 -0.7280641 0.3015747
v -1.192093E-07 -0.8529801 0
v 0.09477448 -0.8529801 0
v -1.192093E-07 -0.8529801 0
v 0.09477448 -0.8529801 0
v -1.192093E-07 -0.7280641 -0.3015747
v 0.0947746 -0.7280641 -0.3015747
v -1.192093E-07 -0.7280641 -0.3015747
v 0.0947746 -0.7280641 -0.3015747
v -1.192093E-07 -0.4264903 -0.4264908
v 0.0947746 -0.4264903 -0.4264908
v -1.192093E-07 -0.4264903 -0.4264908
v 0.0947746 -0.4264903 -0.4264908
v 0 -0.1249161 -0.3015747
v 0.0947746 -0.1249161 -0.3015747
v 0 -0.1249161 -0.3015747
v 0.0947746 -0.1249161 -0.3015747
v 0.06435251 -0.1767945 0.2496967
v 0.06435251 -0.4264908 0
v 0.06435251 -0.07336664 0
v 0.06435251 -0.4264908 0.3531246
v 0.06435251 -0.6761875 0.2496967
v 0.06435251 -0.7796149 0
v 0.06435251 -0.6761875 -0.2496967
v 0.06435251 -0.4264908 -0.3531246
v 0.06435251 -0.1767945 -0.2496967
v 0.0947746 0 0
v 0.0947746 -0.4264903 0
v 0.0947746 -0.1249161 0.3015747
v 0.0947746 -0.4264903 0.4264908
v 0.0947746 -0.4264903 0.4264908
v 0.0947746 -0.7280641 0.3015747
v 0.0947746 -0.4264903 0
v 0.09477448 -0.8529801 0
v 0.09477448 -0.8529801 0
v 0.0947746 -0.7280641 -0.3015747
v 0.0947746 -0.4264903 -0.4264908
v 0.0947746 -0.1249161 -0.3015747
v 0 0 0
v 0 -0.1249161 0.3015747
v -7.867813E-06 -0.07336617 0
v -7.867813E-06 -0.1767941 0.2496967
v 0 -0.1249161 -0.3015747
v -7.867813E-06 -0.1767941 -0.2496967
v -1.192093E-07 -0.4264903 0.4264908
v -7.867813E-06 -0.4264903 0.3531246
v -1.192093E-07 -0.4264903 0.4264908
v -1.192093E-07 -0.7280641 0.3015747
v -7.867813E-06 -0.4264903 0.3531246
v -7.867813E-06 -0.676187 0.2496967
v -1.192093E-07 -0.8529801 0
v -7.867813E-06 -0.7796144 0
v -1.192093E-07 -0.7280641 -0.3015747
v -7.867813E-06 -0.676187 -0.2496967
v -1.192093E-07 -0.4264903 -0.4264908
v -7.867813E-06 -0.4264903 -0.3531246
v -1.192093E-07 -0.4264903 -0.4264908
v -7.867813E-06 -0.4264903 -0.3531246
v -7.867813E-06 -0.07336617 0
v -7.867813E-06 -0.1767941 0.2496967
v 0.06435251 -0.07336664 0
v 0.06435251 -0.1767945 0.2496967
v -7.867813E-06 -0.1767941 -0.2496967
v -7.867813E-06 -0.07336617 0
v 0.06435251 -0.1767945 -0.2496967
v 0.06435251 -0.07336664 0
v -7.867813E-06 -0.1767941 0.2496967
v -7.867813E-06 -0.4264903 0.3531246
v 0.06435251 -0.1767945 0.2496967
v 0.06435251 -0.4264908 0.3531246
v -7.867813E-06 -0.4264903 0.3531246
v -7.867813E-06 -0.676187 0.2496967
v 0.06435251 -0.4264908 0.3531246
v 0.06435251 -0.6761875 0.2496967
v -7.867813E-06 -0.676187 0.2496967
v -7.867813E-06 -0.7796144 0
v 0.06435251 -0.6761875 0.2496967
v 0.06435251 -0.7796149 0
v -7.867813E-06 -0.7796144 0
v -7.867813E-06 -0.676187 -0.2496967
v 0.06435251 -0.7796149 0
v 0.06435251 -0.6761875 -0.2496967
v -7.867813E-06 -0.676187 -0.2496967
v -7.867813E-06 -0.4264903 -0.3531246
v 0.06435251 -0.6761875 -0.2496967
v 0.06435251 -0.4264908 -0.3531246
v -7.867813E-06 -0.4264903 -0.3531246
v -7.867813E-06 -0.1767941 -0.2496967
v 0.06435251 -0.4264908 -0.3531246
v 0.06435251 -0.1767945 -0.2496967
vt 0 0
vt -1 0
vt 0 1
vt -1 1
vt -0.07508916 0.2291312
vt -0.3586419 0.2291312
vt -0.07508916 0.7708688
vt -0.3586419 0.7708688
vt 1 0
vt 0 0
vt 1 1
vt 0 1
vt 1 0
vt 0 0
vt 1 1
vt 0 1
vt 0 0
vt 1 0
vt 0 -1
vt 1 -1
vt 0 -1
vt -1 -1
vt 0 0
vt -1 0
vt 0 0.0003938675
vt -1 0.0003938675
vt -0.04323971 0.1686783
vt -0.3904903 0.1686783
vt -0.001532793 1
vt -0.001532793 0
vt -0.0447731 0.8317156
vt -0.0447731 0.1682844
vt -0.9998913 0
vt -0.9998913 1
vt -0.390382 0.1682844
vt -0.390382 0.8317156
vt -1 0.9996061
vt 0 0.9996061
vt -0.3904903 0.8313217
vt -0.04323971 0.8313217
vt -1.000066 -0.04324025
vt -1.000066 -0.3904908
vt -1.058408 -0.04324025
vt -1.058408 -0.3904908
vt -1.000066 0.8317156
vt -1.000066 0.1682844
vt -1.058408 0.8317156
vt -1.058408 0.1682844
vt 1.000066 0.1682844
vt 1.000066 0.8317156
vt 1.058408 0.1682844
vt 1.058408 0.8317156
vt 1.000066 -0.3904908
vt 1.000066 -0.04324025
vt 1.058408 -0.3904908
vt 1.058408 -0.04324025
vt -0.04324025 0.1697005
vt -0.3904908 0.1697005
vt -0.07508916 0.2305474
vt -0.358642 0.2305474
vt -0.04594582 0.8317156
vt -0.04594582 0.1682844
vt -0.07779479 0.7708688
vt -0.07779479 0.2291312
vt -0.3877837 0.1682844
vt -0.3877837 0.8317156
vt -0.3559347 0.2291312
vt -0.3559347 0.7708688
vt -0.3904908 0.8302985
vt -0.04324025 0.8302985
vt -0.358642 0.7694517
vt -0.07508916 0.7694517
vt 0 0
vt 0 1
vt 0.3826835 0
vt 0.3826835 1
vt 0.270598 1.251698E-06
vt 0.270598 0.9999996
vt 0.6532815 0
vt 0.6532815 0.9999996
vt 0.2705981 0
vt 0.2705981 0.9999996
vt 0.6532816 0
vt 0.6532816 0.9999996
vt -5.960464E-08 0
vt -5.960464E-08 0.9999996
vt 0.3826834 0
vt 0.3826834 0.9999984
vt -0.3826834 2.980232E-08
vt -0.3826834 0.9999985
vt -5.960464E-08 2.980232E-08
vt -5.960464E-08 0.9999997
vt -0.6532817 5.960464E-08
vt -0.6532817 0.9999997
vt -0.2705982 5.960464E-08
vt -0.2705982 0.9999997
vt -0.6532816 0
vt -0.6532816 0.9999997
vt -0.2705983 1.311302E-06
vt -0.2705983 0.9999997
vt -0.3826835 0
vt -0.3826835 1
vt 0.2072674 0.2927345
vt 0.5000014 -5.960464E-08
vt 0.08601268 -5.960464E-08
vt 0.5000014 0.4139892
vt 0.7927359 0.2927345
vt 0.9139898 0
vt 0.7927356 -0.2927346
vt 0.5000012 -0.4139893
vt 0.2072674 -0.2927346
vt -1.490116E-08 0
vt -0.5 0
vt -0.1464466 0.3535534
vt -0.4999998 0.5000001
vt -0.5 0.5
vt -0.8535534 0.3535536
vt -0.4999999 5.960464E-08
vt -0.9999999 -7.152557E-07
vt -1 5.960464E-08
vt -0.8535533 -0.3535533
vt -0.5000003 -0.5000003
vt -0.1464467 -0.3535536
vt -2.235174E-08 2.980232E-08
vt 0.1464466 0.3535534
vt 0.08601144 0
vt 0.2072662 0.2927338
vt 0.1464466 -0.3535535
vt 0.2072662 -0.2927338
vt 0.5000001 0.4999999
vt 0.5000002 0.4139887
vt 0.5 0.4999995
vt 0.8535534 0.3535534
vt 0.5 0.4139882
vt 0.7927348 0.2927339
vt 0.9999995 -3.576279E-07
vt 0.9139885 -4.768372E-07
vt 0.8535522 -0.3535531
vt 0.7927337 -0.2927334
vt 0.4999999 -0.4999994
vt 0.4999999 -0.4139882
vt 0.5000001 -0.5
vt 0.5000001 -0.4139887
vt -0.03291368 -8.317828E-05
vt -0.3497688 -7.578731E-05
vt -0.03291529 0.6789985
vt -0.3497704 0.6790059
vt 0.3497687 -7.557869E-05
vt 0.03291397 -8.314848E-05
vt 0.34977 0.679006
vt 0.03291528 0.6789984
vt -0.3035138 -8.040667E-05
vt -0.6203684 -8.285046E-05
vt -0.3035128 0.6790056
vt -0.6203674 0.6790032
vt -0.3035129 -7.998943E-05
vt -0.620368 -8.237362E-05
vt -0.3035119 0.679006
vt -0.6203671 0.6790037
vt -0.03291258 -8.183718E-05
vt -0.3497675 -7.44462E-05
vt -0.03291425 0.6789998
vt -0.3497691 0.6790072
vt 0.3497674 -7.432699E-05
vt 0.03291243 -8.171797E-05
vt 0.349769 0.6790074
vt 0.0329141 0.679
vt 0.6203681 -8.237362E-05
vt 0.303513 -8.004904E-05
vt 0.6203672 0.6790037
vt 0.303512 0.6790061
vt 0.6203687 -8.291006E-05
vt 0.303514 -8.058548E-05
vt 0.6203676 0.6790032
vt 0.303513 0.6790055
vn 0 0 1
vn 0 0 1
vn 0 0 1
vn 0 0 1
vn -1 0 0
vn -1 0 0
vn -1 0 0
vn -1 0 0
vn 0 0 -1
vn 0 0 -1
vn 0 0 -1
vn 0 0 -1
vn 1 0 0
vn 1 0 0
vn 1 0 0
vn 1 0 0
vn 0 1 0
vn 0 1 0
vn 0 1 0
vn 0 1 0
vn 0 -1 0
vn 0 -1 0
vn 0 -1 0
vn 0 -1 0
vn -1 -0.0003031866 0
vn -1 -0.0003031866 0
vn -1 -0.0003031866 0
vn -0.9999999 -0.0003031866 0
vn -0.9999997 0 0.0007808165
vn -0.9999997 0 0.0007808165
vn -0.9999997 0 0.0007808165
vn -0.9999997 0 0.0007808165
vn -1 0 -5.539254E-05
vn -1 0 -5.539254E-05
vn -1 0 -5.539254E-05
vn -1 0 -5.539254E-05
vn -1 0.0003031866 0
vn -1 0.0003031866 0
vn -1 0.0003031866 0
vn -0.9999999 0.0003031866 0
vn 0 -1 0
vn 0 -1 0
vn 0 -1 0
vn 0 -1 0
vn 0 0 1
vn 0 0 1
vn 0 0 1
vn 0 0 1
vn 0 0 -1
vn 0 0 -1
vn 0 0 -1
vn 0 0 -1
vn 0 1 0
vn 0 1 0
vn 0 1 0
vn 0 1 0
vn -0.9999995 -0.001032482 0
vn -0.9999995 -0.001032482 0
vn -0.9999995 -0.001032482 0
vn -0.9999995 -0.001032482 0
vn -0.9999992 0 0.001305282
vn -0.9999992 0 0.001305282
vn -0.9999992 0 0.001305282
vn -0.9999992 0 0.001305282
vn -0.9999992 0 -0.001305282
vn -0.9999992 0 -0.001305282
vn -0.9999992 0 -0.001305282
vn -0.9999992 0 -0.001305282
vn -0.9999995 0.001032482 0
vn -0.9999995 0.001032482 0
vn -0.9999995 0.001032482 0
vn -0.9999995 0.001032482 0
vn 0 1 0
vn 0 1 0
vn 0 0.707107 0.7071066
vn 0 0.707107 0.7071066
vn 0 0.707107 0.7071066
vn 0 0.707107 0.7071066
vn 0 -2.741913E-07 1
vn 0 -2.741913E-07 1
vn 0 -2.741913E-07 1
vn 0 -2.741913E-07 1
vn 0 -0.7071071 0.7071064
vn 0 -0.7071071 0.7071064
vn 0 -0.7071071 0.7071064
vn 0 -0.7071071 0.7071064
vn 0 -1 0
vn 0 -1 0
vn 0 -1 0
vn 0 -1 0
vn 0 -0.7071071 -0.7071064
vn 0 -0.7071071 -0.7071064
vn 0 -0.7071071 -0.7071064
vn 0 -0.7071071 -0.7071064
vn 0 -2.741913E-07 -1
vn 0 -2.741913E-07 -1
vn 0 -2.741913E-07 -1
vn 0 -2.741913E-07 -1
vn 0 0.707107 -0.7071066
vn 0 0.707107 -0.7071066
vn 0 0.707107 -0.7071066
vn 0 0.707107 -0.7071066
vn -1 0 0
vn -1 0 0
vn -1 0 0
vn -1 0 0
vn -1 0 0
vn -1 0 0
vn -1 0 0
vn -1 0 0
vn -1 0 0
vn 1 0 0
vn 1 0 0
vn 1 0 0
vn 1 0 0
vn 1 0 0
vn 1 0 0
vn 1 -2.795126E-07 -2.795117E-07
vn 1 -2.795126E-07 -2.795117E-07
vn 1 -2.795126E-07 2.795117E-07
vn 1 -2.795126E-07 2.795117E-07
vn 1 0 0
vn 1 0 0
vn -1 0.0001072403 4.442031E-05
vn -1 0.0001072401 4.442027E-05
vn -1 0.0001072401 4.442027E-05
vn -1 0.0001072398 4.442022E-05
vn -1 0.0001072399 -4.442012E-05
vn -1 0.0001072401 -4.442029E-05
vn -1 4.422359E-05 0.0001062879
vn -1 4.37475E-05 0.0001056155
vn -1 -4.374742E-05 0.0001056155
vn -1 -4.374742E-05 0.0001056155
vn -1 -4.374742E-05 0.0001056155
vn -1 -4.374742E-05 0.0001056155
vn -1 -0.0001056163 4.374758E-05
vn -1 -0.0001056162 4.37475E-05
vn -1 -0.0001056163 -4.374759E-05
vn -1 -0.0001056164 -4.374761E-05
vn -1 -4.374742E-05 -0.0001056155
vn -1 -4.374742E-05 -0.0001056155
vn -1 4.414264E-05 -0.0001056155
vn -1 4.428146E-05 -0.0001064276
vn -7.408862E-06 -1 0
vn -5.238858E-06 -0.7071071 -0.7071065
vn -7.408862E-06 -1 0
vn -5.238858E-06 -0.7071071 -0.7071065
vn -5.238858E-06 -0.7071071 0.7071065
vn -7.408862E-06 -1 0
vn -5.238858E-06 -0.7071071 0.7071065
vn -7.408862E-06 -1 0
vn -5.238858E-06 -0.7071071 -0.7071065
vn -2.461076E-12 -3.38707E-07 -1
vn -5.238858E-06 -0.7071071 -0.7071065
vn -2.461076E-12 -3.38707E-07 -1
vn -2.461076E-12 -3.38707E-07 -1
vn 5.23886E-06 0.7071073 -0.7071062
vn -2.461076E-12 -3.38707E-07 -1
vn 5.23886E-06 0.7071073 -0.7071062
vn 5.23886E-06 0.7071073 -0.7071062
vn 7.408862E-06 1 0
vn 5.23886E-06 0.7071073 -0.7071062
vn 7.408862E-06 1 0
vn 7.408862E-06 1 0
vn 5.23886E-06 0.7071073 0.7071062
vn 7.408862E-06 1 0
vn 5.23886E-06 0.7071073 0.7071062
vn 5.23886E-06 0.7071073 0.7071062
vn -2.461076E-12 -3.38707E-07 1
vn 5.23886E-06 0.7071073 0.7071062
vn -2.461076E-12 -3.38707E-07 1
vn -2.461076E-12 -3.38707E-07 1
vn -5.238858E-06 -0.7071071 0.7071065
vn -2.461076E-12 -3.38707E-07 1
vn -5.238858E-06 -0.7071071 0.7071065
g pb_Mesh-6686_0
f 3/3/3 2/2/2 1/1/1
f 3/3/3 4/4/4 2/2/2
f 7/7/7 6/6/6 5/5/5
f 7/7/7 8/8/8 6/6/6
f 11/11/11 10/10/10 9/9/9
f 11/11/11 12/12/12 10/10/10
f 15/15/15 14/14/14 13/13/13
f 15/15/15 16/16/16 14/14/14
f 19/19/19 18/18/18 17/17/17
f 19/19/19 20/20/20 18/18/18
f 23/23/23 22/22/22 21/21/21
f 23/23/23 24/24/24 22/22/22
f 27/27/27 26/26/26 25/25/25
f 27/27/27 28/28/28 26/26/26
f 31/31/31 30/30/30 29/29/29
f 31/31/31 32/32/32 30/30/30
f 35/35/35 34/34/34 33/33/33
f 35/35/35 36/36/36 34/34/34
f 39/39/39 38/38/38 37/37/37
f 39/39/39 40/40/40 38/38/38
f 43/43/43 42/42/42 41/41/41
f 43/43/43 44/44/44 42/42/42
f 47/47/47 46/46/46 45/45/45
f 47/47/47 48/48/48 46/46/46
f 51/51/51 50/50/50 49/49/49
f 51/51/51 52/52/52 50/50/50
f 55/55/55 54/54/54 53/53/53
f 55/55/55 56/56/56 54/54/54
f 59/59/59 58/58/58 57/57/57
f 59/59/59 60/60/60 58/58/58
f 63/63/63 62/62/62 61/61/61
f 63/63/63 64/64/64 62/62/62
f 67/67/67 66/66/66 65/65/65
f 67/67/67 68/68/68 66/66/66
f 71/71/71 70/70/70 69/69/69
f 71/71/71 72/72/72 70/70/70
f 75/75/75 74/74/74 73/73/73
f 75/75/75 76/76/76 74/74/74
f 79/79/79 78/78/78 77/77/77
f 79/79/79 80/80/80 78/78/78
f 83/83/83 82/82/82 81/81/81
f 83/83/83 84/84/84 82/82/82
f 87/87/87 86/86/86 85/85/85
f 87/87/87 88/88/88 86/86/86
f 91/91/91 90/90/90 89/89/89
f 91/91/91 92/92/92 90/90/90
f 95/95/95 94/94/94 93/93/93
f 95/95/95 96/96/96 94/94/94
f 99/99/99 98/98/98 97/97/97
f 99/99/99 100/100/100 98/98/98
f 73/73/73 102/102/102 101/101/101
f 73/73/73 74/74/74 102/102/102
f 105/105/105 104/104/104 103/103/103
f 103/103/103 104/104/104 106/106/106
f 106/106/106 104/104/104 107/107/107
f 107/107/107 104/104/104 108/108/108
f 108/108/108 104/104/104 109/109/109
f 109/109/109 104/104/104 110/110/110
f 110/110/110 104/104/104 111/111/111
f 111/111/111 104/104/104 105/105/105
f 114/114/114 113/113/113 112/112/112
f 115/115/115 113/113/113 114/114/114
f 117/117/117 113/113/113 116/116/116
f 119/119/119 118/118/118 117/117/117
f 121/121/121 113/113/113 120/120/120
f 122/122/122 118/118/118 121/121/121
f 123/123/123 113/113/113 122/122/122
f 112/112/112 113/113/113 123/123/123
f 126/126/126 125/125/125 124/124/124
f 126/126/126 127/127/127 125/125/125
f 129/129/129 124/124/124 128/128/128
f 129/129/129 126/126/126 124/124/124
f 127/127/127 130/130/130 125/125/125
f 127/127/127 131/131/131 130/130/130
f 134/134/134 133/133/133 132/132/132
f 134/134/134 135/135/135 133/133/133
f 135/135/135 136/136/136 133/133/133
f 135/135/135 137/137/137 136/136/136
f 137/137/137 138/138/138 136/136/136
f 137/137/137 139/139/139 138/138/138
f 139/139/139 140/140/140 138/138/138
f 139/139/139 141/141/141 140/140/140
f 143/143/143 128/128/128 142/142/142
f 143/143/143 129/129/129 128/128/128
f 146/146/146 145/145/145 144/144/144
f 146/146/146 147/147/147 145/145/145
f 150/150/150 149/149/149 148/148/148
f 150/150/150 151/151/151 149/149/149
f 154/154/154 153/153/153 152/152/152
f 154/154/154 155/155/155 153/153/153
f 158/158/158 157/157/157 156/156/156
f 158/158/158 159/159/159 157/157/157
f 162/162/162 161/161/161 160/160/160
f 162/162/162 163/163/163 161/161/161
f 166/166/166 165/165/165 164/164/164
f 166/166/166 167/167/167 165/165/165
f 170/170/170 169/169/169 168/168/168
f 170/170/170 171/171/171 169/169/169
f 174/174/174 173/173/173 172/172/172
f 174/174/174 175/175/175 173/173/173
