g pb_Mesh-6882
v 0 0 0
v 0.07070934 0.2036722 -1.39643E-08
v 0.5 0 0.5
v 0.500002 0.2036722 0.4292893
v 0.5 0 0.5
v 0.500002 0.2036722 0.4292893
v 1 0 -4.371139E-08
v 0.9292898 0.2036722 -1.39643E-08
v 1 0 -4.371139E-08
v 0.9292898 0.2036722 -1.39643E-08
v 0.5 0 -0.5
v 0.500002 0.2036722 -0.4292893
v 0.5 0 -0.5
v 0.500002 0.2036722 -0.4292893
v 0 0 0
v 0.07070934 0.2036722 -1.39643E-08
v 0.5 0 0.5
v 0.5 0 0
v 0 0 0
v 1 0 -4.371139E-08
v 0.5 0 -0.5
v 0.3205579 2.871674 6.03798E-08
v 0.500002 2.997621 6.03798E-08
v 0.500002 2.871674 0.1794421
v 0.500002 2.871674 0.1794421
v 0.500002 2.997621 6.03798E-08
v 0.6794413 2.871674 6.03798E-08
v 0.6794413 2.871674 6.03798E-08
v 0.500002 2.997621 6.03798E-08
v 0.500002 2.871674 -0.179442
v 0.500002 2.871674 -0.179442
v 0.500002 2.997621 6.03798E-08
v 0.3205579 2.871674 6.03798E-08
v 0.500002 0.2036722 -0.4292893
v 0.9292898 0.2036722 -1.39643E-08
v 0.500002 0.2037176 -0.179442
v 0.6794413 0.2037176 6.03798E-08
v 0.07070934 0.2036722 -1.39643E-08
v 0.500002 0.2036722 -0.4292893
v 0.3205579 0.2037176 6.03798E-08
v 0.500002 0.2037176 -0.179442
v 0.9292898 0.2036722 -1.39643E-08
v 0.500002 0.2036722 0.4292893
v 0.6794413 0.2037176 6.03798E-08
v 0.500002 0.2037176 0.1794421
v 0.500002 0.2036722 0.4292893
v 0.07070934 0.2036722 -1.39643E-08
v 0.500002 0.2037176 0.1794421
v 0.3205579 0.2037176 6.03798E-08
v 0.500002 2.871674 -0.179442
v 0.6794413 2.538179 6.03798E-08
v 0.6794413 2.871674 6.03798E-08
v 0.500002 2.538179 -0.179442
v 0.500002 2.538179 -0.179442
v 0.6794413 2.204685 6.03798E-08
v 0.6794413 2.538179 6.03798E-08
v 0.500002 2.204685 -0.179442
v 0.3205579 2.538179 6.03798E-08
v 0.500002 2.204685 -0.179442
v 0.500002 2.538179 -0.179442
v 0.3205579 2.204685 6.03798E-08
v 0.500002 2.871674 -0.179442
v 0.3205579 2.871674 6.03798E-08
v 0.3205579 2.538179 6.03798E-08
v 0.500002 2.538179 -0.179442
v 0.6794413 2.871674 6.03798E-08
v 0.500002 2.538179 0.1794421
v 0.500002 2.871674 0.1794421
v 0.6794413 2.538179 6.03798E-08
v 0.6794413 2.538179 6.03798E-08
v 0.500002 2.204685 0.1794421
v 0.500002 2.538179 0.1794421
v 0.6794413 2.204685 6.03798E-08
v 0.500002 2.204685 0.1794421
v 0.3205579 2.204685 6.03798E-08
v 0.500002 2.538179 0.1794421
v 0.3205579 2.538179 6.03798E-08
v 0.500002 2.538179 0.1794421
v 0.3205579 2.538179 6.03798E-08
v 0.3205579 2.871674 6.03798E-08
v 0.500002 2.871674 0.1794421
v 0.6794413 1.87119 6.03798E-08
v 0.500002 1.87119 -0.179442
v 0.500002 1.537696 -0.179442
v 0.6794413 1.537696 6.03798E-08
v 0.500002 2.204685 -0.179442
v 0.6794413 1.87119 6.03798E-08
v 0.6794413 2.204685 6.03798E-08
v 0.500002 1.87119 -0.179442
v 0.500002 2.204685 -0.179442
v 0.3205579 2.204685 6.03798E-08
v 0.3205579 1.87119 6.03798E-08
v 0.500002 1.87119 -0.179442
v 0.3205579 1.87119 6.03798E-08
v 0.500002 1.537696 -0.179442
v 0.500002 1.87119 -0.179442
v 0.3205579 1.537696 6.03798E-08
v 0.500002 1.87119 0.1794421
v 0.6794413 1.87119 6.03798E-08
v 0.6794413 1.537696 6.03798E-08
v 0.500002 1.537696 0.1794421
v 0.6794413 2.204685 6.03798E-08
v 0.500002 1.87119 0.1794421
v 0.500002 2.204685 0.1794421
v 0.6794413 1.87119 6.03798E-08
v 0.500002 1.537696 0.1794421
v 0.3205579 1.537696 6.03798E-08
v 0.3205579 1.87119 6.03798E-08
v 0.500002 1.87119 0.1794421
v 0.500002 1.87119 0.1794421
v 0.3205579 1.87119 6.03798E-08
v 0.3205579 2.204685 6.03798E-08
v 0.500002 2.204685 0.1794421
v 0.6794413 1.537696 6.03798E-08
v 0.500002 1.537696 -0.179442
v 0.500002 1.204201 -0.179442
v 0.6794413 1.204201 6.03798E-08
v 0.6794413 1.204201 6.03798E-08
v 0.500002 1.204201 -0.179442
v 0.500002 0.8707067 -0.179442
v 0.6794413 0.8707067 6.03798E-08
v 0.3205579 1.204201 6.03798E-08
v 0.500002 0.8707067 -0.179442
v 0.500002 1.204201 -0.179442
v 0.3205579 0.8707067 6.03798E-08
v 0.3205579 1.537696 6.03798E-08
v 0.500002 1.204201 -0.179442
v 0.500002 1.537696 -0.179442
v 0.3205579 1.204201 6.03798E-08
v 0.500002 1.537696 0.1794421
v 0.6794413 1.537696 6.03798E-08
v 0.6794413 1.204201 6.03798E-08
v 0.500002 1.204201 0.1794421
v 0.500002 1.204201 0.1794421
v 0.6794413 1.204201 6.03798E-08
v 0.6794413 0.8707067 6.03798E-08
v 0.500002 0.8707067 0.1794421
v 0.500002 0.8707067 0.1794421
v 0.3205579 0.8707067 6.03798E-08
v 0.3205579 1.204201 6.03798E-08
v 0.500002 1.204201 0.1794421
v 0.500002 1.204201 0.1794421
v 0.3205579 1.204201 6.03798E-08
v 0.3205579 1.537696 6.03798E-08
v 0.500002 1.537696 0.1794421
v 0.500002 0.5372121 -0.179442
v 0.6794413 0.2037176 6.03798E-08
v 0.6794413 0.5372121 6.03798E-08
v 0.500002 0.2037176 -0.179442
v 0.6794413 0.8707067 6.03798E-08
v 0.500002 0.8707067 -0.179442
v 0.3205579 0.5372121 6.03798E-08
v 0.500002 0.2037176 -0.179442
v 0.500002 0.5372121 -0.179442
v 0.3205579 0.2037176 6.03798E-08
v 0.3205579 0.8707067 6.03798E-08
v 0.500002 0.8707067 -0.179442
v 0.6794413 0.5372121 6.03798E-08
v 0.500002 0.2037176 0.1794421
v 0.500002 0.5372121 0.1794421
v 0.6794413 0.2037176 6.03798E-08
v 0.500002 0.8707067 0.1794421
v 0.6794413 0.8707067 6.03798E-08
v 0.500002 0.2037176 0.1794421
v 0.3205579 0.2037176 6.03798E-08
v 0.500002 0.5372121 0.1794421
v 0.3205579 0.5372121 6.03798E-08
v 0.3205579 0.8707067 6.03798E-08
v 0.500002 0.8707067 0.1794421
vt 0 0
vt 0.04999904 0.2097195
vt 0.7071068 0
vt 0.6571082 0.20972
vt 0 -0.1685793
vt 0.05000138 0.04114008
vt 0.7071068 -0.1685793
vt 0.6571071 0.04114033
vt -0.7071067 -0.1685827
vt -0.6571071 0.04113689
vt 2.980232E-08 -0.1685827
vt -0.05000137 0.04113663
vt -0.7071068 0
vt -0.6571081 0.20972
vt 0 0
vt -0.04999906 0.2097195
vt 0.5 0.5
vt 0.5 0
vt 0 0
vt 1 -4.371139E-08
vt 0.5 -0.5
vt -1.912131 -1.079148
vt -2.131363 -1.079148
vt -2.059008 -0.8722014
vt 1.240527 -1.158365
vt 1.312883 -1.365311
vt 1.093655 -1.365311
vt 1.093655 1.365311
vt 1.312883 1.365311
vt 1.240527 1.158365
vt -2.059008 0.8722015
vt -2.131363 1.079148
vt -1.912131 1.079148
vt -0.499965 -0.4292523
vt -0.9292528 3.701716E-05
vt -0.499965 -0.179405
vt -0.6794043 3.70915E-05
vt -0.07074634 3.695444E-05
vt -0.500039 -0.4292524
vt -0.3205949 3.702879E-05
vt -0.500039 -0.179405
vt -0.9292528 -3.704479E-05
vt -0.499965 0.4292523
vt -0.6794043 -3.697044E-05
vt -0.499965 0.1794051
vt -0.500039 0.4292524
vt -0.07074634 -3.70121E-05
vt -0.500039 0.1794051
vt -0.3205949 -3.693775E-05
vt -0.2266664 2.871674
vt -0.4804339 2.538179
vt -0.4804339 2.871674
vt -0.2266664 2.538179
vt -0.2266664 2.538179
vt -0.4804339 2.204685
vt -0.4804339 2.538179
vt -0.2266664 2.204685
vt -0.2266699 2.538179
vt -0.4804407 2.204685
vt -0.4804407 2.538179
vt -0.2266699 2.204685
vt -0.4804407 2.871674
vt -0.2266699 2.871674
vt -0.2266699 2.538179
vt -0.4804407 2.538179
vt 0.4804338 2.871674
vt 0.2266663 2.538179
vt 0.2266663 2.871674
vt 0.4804338 2.538179
vt 0.4804338 2.538179
vt 0.2266663 2.204685
vt 0.2266663 2.538179
vt 0.4804338 2.204685
vt 0.4804408 2.204685
vt 0.22667 2.204685
vt 0.4804408 2.538179
vt 0.22667 2.538179
vt 0.4804408 2.538179
vt 0.22667 2.538179
vt 0.22667 2.871674
vt 0.4804408 2.871674
vt -0.4804339 1.87119
vt -0.2266664 1.87119
vt -0.2266664 1.537696
vt -0.4804339 1.537696
vt -0.2266664 2.204685
vt -0.4804339 1.87119
vt -0.4804339 2.204685
vt -0.2266664 1.87119
vt -0.4804407 2.204685
vt -0.2266699 2.204685
vt -0.2266699 1.87119
vt -0.4804407 1.87119
vt -0.2266699 1.87119
vt -0.4804407 1.537696
vt -0.4804407 1.87119
vt -0.2266699 1.537696
vt 0.2266663 1.87119
vt 0.4804338 1.87119
vt 0.4804338 1.537696
vt 0.2266663 1.537696
vt 0.4804338 2.204685
vt 0.2266663 1.87119
vt 0.2266663 2.204685
vt 0.4804338 1.87119
vt 0.4804408 1.537696
vt 0.22667 1.537696
vt 0.22667 1.87119
vt 0.4804408 1.87119
vt 0.4804408 1.87119
vt 0.22667 1.87119
vt 0.22667 2.204685
vt 0.4804408 2.204685
vt -0.4804339 1.537696
vt -0.2266664 1.537696
vt -0.2266664 1.204201
vt -0.4804339 1.204201
vt -0.4804339 1.204201
vt -0.2266664 1.204201
vt -0.2266664 0.8707067
vt -0.4804339 0.8707067
vt -0.2266699 1.204201
vt -0.4804407 0.8707067
vt -0.4804407 1.204201
vt -0.2266699 0.8707067
vt -0.2266699 1.537696
vt -0.4804407 1.204201
vt -0.4804407 1.537696
vt -0.2266699 1.204201
vt 0.2266663 1.537696
vt 0.4804338 1.537696
vt 0.4804338 1.204201
vt 0.2266663 1.204201
vt 0.2266663 1.204201
vt 0.4804338 1.204201
vt 0.4804338 0.8707067
vt 0.2266663 0.8707067
vt 0.4804408 0.8707067
vt 0.22667 0.8707067
vt 0.22667 1.204201
vt 0.4804408 1.204201
vt 0.4804408 1.204201
vt 0.22667 1.204201
vt 0.22667 1.537696
vt 0.4804408 1.537696
vt -0.2266664 0.5372121
vt -0.4804339 0.2037176
vt -0.4804339 0.5372121
vt -0.2266664 0.2037176
vt -0.4804339 0.8707067
vt -0.2266664 0.8707067
vt -0.2266699 0.5372121
vt -0.4804407 0.2037176
vt -0.4804407 0.5372121
vt -0.2266699 0.2037176
vt -0.2266699 0.8707067
vt -0.4804407 0.8707067
vt 0.4804338 0.5372121
vt 0.2266663 0.2037176
vt 0.2266663 0.5372121
vt 0.4804338 0.2037176
vt 0.2266663 0.8707067
vt 0.4804338 0.8707067
vt 0.4804408 0.2037176
vt 0.22667 0.2037176
vt 0.4804408 0.5372121
vt 0.22667 0.5372121
vt 0.22667 0.8707067
vt 0.4804408 0.8707067
vn -0.9446871 0.3279731 -3.279826E-07
vn -0.9446869 0.3279736 -1.721912E-06
vn 1.885897E-06 0.3279717 0.9446875
vn 3.525802E-06 0.3279768 0.9446858
vn 1.885897E-06 0.3279717 0.9446875
vn 3.525802E-06 0.3279768 0.9446858
vn 0.9446876 0.3279715 -1.639911E-07
vn 0.9446877 0.3279713 -7.789573E-07
vn 0.9446876 0.3279715 -1.639911E-07
vn 0.9446877 0.3279713 -7.789573E-07
vn 1.639911E-06 0.3279768 -0.9446858
vn 2.582861E-06 0.3279712 -0.9446877
vn 1.639911E-06 0.3279768 -0.9446858
vn 2.582861E-06 0.3279712 -0.9446877
vn -0.9446871 0.3279731 -3.279826E-07
vn -0.9446869 0.3279736 -1.721912E-06
vn 0 -1 0
vn 0 -1 0
vn 0 -1 0
vn 0 -1 0
vn 0 -1 0
vn -0.8616963 0.5074244 0
vn 7.012567E-06 1 0
vn 6.924881E-06 0.507421 0.8616983
vn 6.924881E-06 0.507421 0.8616983
vn 7.012567E-06 1 0
vn 0.8617013 0.5074158 0
vn 0.8617013 0.5074158 0
vn 7.012567E-06 1 0
vn 6.924881E-06 0.507421 -0.8616983
vn 6.924881E-06 0.507421 -0.8616983
vn 7.012567E-06 1 0
vn -0.8616963 0.5074244 0
vn 0.0001816673 1 -0.0001816667
vn 0.0001816665 1 -0.0001816648
vn 0.0001816665 1 -0.0001816648
vn 0.0001816657 1 -0.000181663
vn -0.0001816657 1 -0.0001816672
vn -0.0001816652 1 -0.0001816669
vn -0.0001816652 1 -0.0001816669
vn -0.0001816647 1 -0.0001816667
vn 0.0001816659 1 0.0001816652
vn 0.0001816677 1 0.000181666
vn 0.0001816677 1 0.000181666
vn 0.0001816696 1 0.0001816668
vn -0.0001816654 1 0.0001816668
vn -0.0001816656 1 0.0001816673
vn -0.0001816656 1 0.0001816673
vn -0.0001816658 1 0.0001816679
vn 6.924881E-06 0.507421 -0.8616983
vn 1 0 0
vn 0.8617013 0.5074158 0
vn 6.617061E-06 0 -1
vn 6.617061E-06 0 -1
vn 1 0 0
vn 1 0 0
vn 6.638135E-06 0 -1
vn -1 0 0
vn 6.638135E-06 0 -1
vn 6.617061E-06 0 -1
vn -1 0 0
vn 6.924881E-06 0.507421 -0.8616983
vn -0.8616963 0.5074244 0
vn -1 0 0
vn 6.617061E-06 0 -1
vn 0.8617013 0.5074158 0
vn 6.617061E-06 0 1
vn 6.924881E-06 0.507421 0.8616983
vn 1 0 0
vn 1 0 0
vn 6.638135E-06 0 1
vn 6.617061E-06 0 1
vn 1 0 0
vn 6.638135E-06 0 1
vn -1 0 0
vn 6.617061E-06 0 1
vn -1 0 0
vn 6.617061E-06 0 1
vn -1 0 0
vn -0.8616963 0.5074244 0
vn 6.924881E-06 0.507421 0.8616983
vn 1 0 2.107326E-08
vn 6.617061E-06 0 -1
vn 6.617061E-06 0 -1
vn 1 0 0
vn 6.638135E-06 0 -1
vn 1 0 2.107326E-08
vn 1 0 0
vn 6.617061E-06 0 -1
vn 6.638135E-06 0 -1
vn -1 0 0
vn -1 0 0
vn 6.617061E-06 0 -1
vn -1 0 0
vn 6.617061E-06 0 -1
vn 6.617061E-06 0 -1
vn -1 0 0
vn 6.617061E-06 0 1
vn 1 0 2.107326E-08
vn 1 0 0
vn 6.617061E-06 0 1
vn 1 0 0
vn 6.617061E-06 0 1
vn 6.638135E-06 0 1
vn 1 0 2.107326E-08
vn 6.617061E-06 0 1
vn -1 0 0
vn -1 0 0
vn 6.617061E-06 0 1
vn 6.617061E-06 0 1
vn -1 0 0
vn -1 0 0
vn 6.638135E-06 0 1
vn 1 0 0
vn 6.617061E-06 0 -1
vn 6.617061E-06 0 -1
vn 1 0 0
vn 1 0 0
vn 6.617061E-06 0 -1
vn 6.617061E-06 0 -1
vn 1 0 0
vn -1 0 0
vn 6.617061E-06 0 -1
vn 6.617061E-06 0 -1
vn -1 0 0
vn -1 0 0
vn 6.617061E-06 0 -1
vn 6.617061E-06 0 -1
vn -1 0 0
vn 6.617061E-06 0 1
vn 1 0 0
vn 1 0 0
vn 6.617061E-06 0 1
vn 6.617061E-06 0 1
vn 1 0 0
vn 1 0 0
vn 6.617061E-06 0 1
vn 6.617061E-06 0 1
vn -1 0 0
vn -1 0 0
vn 6.617061E-06 0 1
vn 6.617061E-06 0 1
vn -1 0 0
vn -1 0 0
vn 6.617061E-06 0 1
vn 6.617061E-06 0 -1
vn 1 0 0
vn 1 0 2.107326E-08
vn 6.617062E-06 0 -1
vn 1 0 0
vn 6.617061E-06 0 -1
vn -1 0 0
vn 6.617062E-06 0 -1
vn 6.617061E-06 0 -1
vn -1 0 0
vn -1 0 0
vn 6.617061E-06 0 -1
vn 1 0 2.107326E-08
vn 6.617062E-06 0 1
vn 6.617061E-06 0 1
vn 1 0 0
vn 6.617061E-06 0 1
vn 1 0 0
vn 6.617062E-06 0 1
vn -1 0 0
vn 6.617061E-06 0 1
vn -1 0 0
vn -1 0 0
vn 6.617061E-06 0 1
g pb_Mesh-6882_0
f 3/3/3 2/2/2 1/1/1
f 3/3/3 4/4/4 2/2/2
f 7/7/7 6/6/6 5/5/5
f 7/7/7 8/8/8 6/6/6
f 11/11/11 10/10/10 9/9/9
f 11/11/11 12/12/12 10/10/10
f 15/15/15 14/14/14 13/13/13
f 15/15/15 16/16/16 14/14/14
f 19/19/19 18/18/18 17/17/17
f 17/17/17 18/18/18 20/20/20
f 20/20/20 18/18/18 21/21/21
f 21/21/21 18/18/18 19/19/19
f 24/24/24 23/23/23 22/22/22
f 27/27/27 26/26/26 25/25/25
f 30/30/30 29/29/29 28/28/28
f 33/33/33 32/32/32 31/31/31
f 36/36/36 35/35/35 34/34/34
f 36/36/36 37/37/37 35/35/35
f 40/40/40 39/39/39 38/38/38
f 40/40/40 41/41/41 39/39/39
f 44/44/44 43/43/43 42/42/42
f 44/44/44 45/45/45 43/43/43
f 48/48/48 47/47/47 46/46/46
f 48/48/48 49/49/49 47/47/47
f 52/52/52 51/51/51 50/50/50
f 51/51/51 53/53/53 50/50/50
f 56/56/56 55/55/55 54/54/54
f 55/55/55 57/57/57 54/54/54
f 60/60/60 59/59/59 58/58/58
f 59/59/59 61/61/61 58/58/58
f 64/64/64 63/63/63 62/62/62
f 65/65/65 64/64/64 62/62/62
f 68/68/68 67/67/67 66/66/66
f 67/67/67 69/69/69 66/66/66
f 72/72/72 71/71/71 70/70/70
f 71/71/71 73/73/73 70/70/70
f 76/76/76 75/75/75 74/74/74
f 76/76/76 77/77/77 75/75/75
f 80/80/80 79/79/79 78/78/78
f 80/80/80 78/78/78 81/81/81
f 84/84/84 83/83/83 82/82/82
f 85/85/85 84/84/84 82/82/82
f 88/88/88 87/87/87 86/86/86
f 87/87/87 89/89/89 86/86/86
f 92/92/92 91/91/91 90/90/90
f 93/93/93 92/92/92 90/90/90
f 96/96/96 95/95/95 94/94/94
f 95/95/95 97/97/97 94/94/94
f 100/100/100 99/99/99 98/98/98
f 101/101/101 100/100/100 98/98/98
f 104/104/104 103/103/103 102/102/102
f 103/103/103 105/105/105 102/102/102
f 108/108/108 107/107/107 106/106/106
f 108/108/108 106/106/106 109/109/109
f 112/112/112 111/111/111 110/110/110
f 112/112/112 110/110/110 113/113/113
f 116/116/116 115/115/115 114/114/114
f 117/117/117 116/116/116 114/114/114
f 120/120/120 119/119/119 118/118/118
f 121/121/121 120/120/120 118/118/118
f 124/124/124 123/123/123 122/122/122
f 123/123/123 125/125/125 122/122/122
f 128/128/128 127/127/127 126/126/126
f 127/127/127 129/129/129 126/126/126
f 132/132/132 131/131/131 130/130/130
f 133/133/133 132/132/132 130/130/130
f 136/136/136 135/135/135 134/134/134
f 137/137/137 136/136/136 134/134/134
f 140/140/140 139/139/139 138/138/138
f 140/140/140 138/138/138 141/141/141
f 144/144/144 143/143/143 142/142/142
f 144/144/144 142/142/142 145/145/145
f 148/148/148 147/147/147 146/146/146
f 147/147/147 149/149/149 146/146/146
f 146/146/146 151/151/151 150/150/150
f 148/148/148 146/146/146 150/150/150
f 154/154/154 153/153/153 152/152/152
f 153/153/153 155/155/155 152/152/152
f 157/157/157 154/154/154 156/156/156
f 154/154/154 152/152/152 156/156/156
f 160/160/160 159/159/159 158/158/158
f 159/159/159 161/161/161 158/158/158
f 158/158/158 163/163/163 162/162/162
f 160/160/160 158/158/158 162/162/162
f 166/166/166 165/165/165 164/164/164
f 166/166/166 167/167/167 165/165/165
f 168/168/168 167/167/167 166/166/166
f 168/168/168 166/166/166 169/169/169
