g pb_Mesh-6612
v 0.2794721 -0.4366613 0.09899998
v 0.2635257 -0.3451048 0.09899998
v -0.1151788 -0.4457283 0.09899998
v -0.096147 -0.3394945 0.09899998
v 0.26397 -0.37 0.16896
v 0.08543843 -0.3864502 0.1950351
v 0.08543843 -0.09531289 0.1950351
v 0.2721944 -0.09531289 0.16896
v 0.08543843 -0.3864502 0.1950351
v -0.09309316 -0.37 0.16896
v -0.08827156 -0.09531289 0.16896
v 0.08543843 -0.09531289 0.1950351
v 0.26397 -0.37 0.02905992
v 0.2721944 -0.09531289 0.02905983
v 0.08543843 -0.09531289 0.006798983
v 0.08543843 -0.3864502 0.006799012
v 0.08543843 -0.09531289 0.006798983
v -0.08827156 -0.09531289 0.02905983
v -0.09309316 -0.37 0.02905992
v 0.08543843 -0.3864502 0.006799012
v 0.2721944 -0.009511888 0.16896
v 0.2721944 -0.09531289 0.16896
v 0.08543843 -0.09531289 0.1950351
v 0.08543843 -0.009511888 0.1950351
v 0.08543843 -0.09531289 0.1950351
v -0.08827156 -0.09531289 0.16896
v -0.08827156 -0.009511888 0.16896
v 0.08543843 -0.009511888 0.1950351
v 0.2721944 -0.009511888 0.16896
v 0.08543843 -0.009511888 0.1950351
v 0.08543843 0.1561062 0.1950351
v 0.26397 0.1161346 0.16896
v 0.08543843 -0.009511888 0.1950351
v -0.08827156 -0.009511888 0.16896
v -0.09309316 0.1161346 0.16896
v 0.08543843 0.1561062 0.1950351
v -0.08827156 -0.009511888 0.02905983
v -0.08827156 -0.09531289 0.02905983
v 0.08543843 -0.09531289 0.006798983
v 0.08543843 -0.009511888 0.006798983
v 0.08543843 -0.09531289 0.006798983
v 0.2721944 -0.09531289 0.02905983
v 0.2721944 -0.009511888 0.02905983
v 0.08543843 -0.009511888 0.006798983
v 0.2721944 -0.009511888 0.02905983
v 0.26397 0.1161346 0.02905992
v 0.08543843 0.1561062 0.006799012
v 0.08543843 -0.009511888 0.006798983
v 0.08543843 0.1561062 0.006799012
v -0.09309316 0.1161346 0.02905992
v -0.08827156 -0.009511888 0.02905983
v 0.08543843 -0.009511888 0.006798983
v -0.09309316 -0.37 0.16896
v -0.1159653 -0.37 0.09900987
v -0.1111438 -0.09531289 0.09900987
v -0.08827156 -0.09531289 0.16896
v -0.1159653 -0.37 0.09900987
v -0.09309316 -0.37 0.02905992
v -0.08827156 -0.09531289 0.02905983
v -0.1111438 -0.09531289 0.09900987
v 0.26397 -0.37 0.16896
v 0.2721944 -0.09531289 0.16896
v 0.2851905 -0.09531289 0.09900987
v 0.2769661 -0.37 0.09900987
v 0.2851905 -0.09531289 0.09900987
v 0.2721944 -0.09531289 0.02905983
v 0.26397 -0.37 0.02905992
v 0.2769661 -0.37 0.09900987
v -0.08827156 -0.009511888 0.16896
v -0.08827156 -0.09531289 0.16896
v -0.1111438 -0.09531289 0.09900987
v -0.1111438 -0.009511888 0.09900987
v -0.1111438 -0.09531289 0.09900987
v -0.08827156 -0.09531289 0.02905983
v -0.08827156 -0.009511888 0.02905983
v -0.1111438 -0.009511888 0.09900987
v -0.09309316 0.1161346 0.16896
v -0.08827156 -0.009511888 0.16896
v -0.1111438 -0.009511888 0.09900987
v -0.1159653 0.1161346 0.09900987
v -0.1111438 -0.009511888 0.09900987
v -0.08827156 -0.009511888 0.02905983
v -0.09309316 0.1161346 0.02905992
v -0.1159653 0.1161346 0.09900987
v 0.2721944 -0.009511888 0.02905983
v 0.2721944 -0.09531289 0.02905983
v 0.2851905 -0.09531289 0.09900987
v 0.2851905 -0.009511888 0.09900987
v 0.2851905 -0.09531289 0.09900987
v 0.2721944 -0.09531289 0.16896
v 0.2721944 -0.009511888 0.16896
v 0.2851905 -0.009511888 0.09900987
v 0.26397 0.1161346 0.02905992
v 0.2721944 -0.009511888 0.02905983
v 0.2851905 -0.009511888 0.09900987
v 0.2769661 0.1161346 0.09900987
v 0.2851905 -0.009511888 0.09900987
v 0.2721944 -0.009511888 0.16896
v 0.26397 0.1161346 0.16896
v 0.2769661 0.1161346 0.09900987
v 0.08543843 0.1561062 0.006799012
v 0.26397 0.1161346 0.02905992
v 0.2769661 0.1161346 0.09900987
v 0.08543843 0.1716866 0.09900987
v 0.2769661 0.1161346 0.09900987
v 0.26397 0.1161346 0.16896
v 0.08543843 0.1561062 0.1950351
v 0.08543843 0.1716866 0.09900987
v -0.09309316 0.1161346 0.02905992
v 0.08543843 0.1561062 0.006799012
v 0.08543843 0.1716866 0.09900987
v -0.1159653 0.1161346 0.09900987
v 0.08543843 0.1716866 0.09900987
v 0.08543843 0.1561062 0.1950351
v -0.09309316 0.1161346 0.16896
v -0.1159653 0.1161346 0.09900987
v 0.08543843 -0.3864502 0.006799012
v 0.08543843 -0.3864502 0.09900987
v 0.2769661 -0.37 0.09900987
v 0.26397 -0.37 0.02905992
v 0.08543843 -0.3864502 0.09900987
v 0.08543843 -0.3864502 0.1950351
v 0.26397 -0.37 0.16896
v 0.2769661 -0.37 0.09900987
v -0.09309316 -0.37 0.02905992
v -0.1159653 -0.37 0.09900987
v 0.08543843 -0.3864502 0.09900987
v 0.08543843 -0.3864502 0.006799012
v -0.1159653 -0.37 0.09900987
v -0.09309316 -0.37 0.16896
v 0.08543843 -0.3864502 0.1950351
v 0.08543843 -0.3864502 0.09900987
v -0.1143723 0.1933894 0.079
v -0.09699994 0.1020928 0.079
v 0.2800893 0.2086106 0.079
v 0.2627166 0.1020928 0.079
v -0.00933075 -0.0131572 -2.980232E-08
v 0.09028941 -0.1709908 -5.960464E-08
v 0.2025356 0.01315718 -2.980232E-08
v 0.1029153 -0.1709908 -5.960464E-08
vt -0.01214945 -0.09935808
vt -0.08940828 0.9285603
vt 1.143162 -0.06257677
vt 0.9448004 1.117001
vt 0.07338667 0.02778733
vt -0.4900739 -0.08837807
vt -0.5787958 0.5343831
vt 0.01534057 0.619027
vt -0.4977649 -0.03439277
vt -0.9999303 -0.0005248189
vt -0.9866593 0.5650072
vt -0.4977649 0.5650072
vt -0.003325999 0.001720965
vt -0.02600127 0.5667636
vt 0.4965574 0.5667636
vt 0.4965574 -0.03211772
vt 0.4945166 0.5651242
vt 0.9818686 0.5682886
vt 0.9988489 0.00335598
vt 0.4984015 -0.03372908
vt 0.02303171 0.7415373
vt 0.02321458 0.5650265
vt -0.4977649 0.5644867
vt -0.4979478 0.7409976
vt -0.4977649 0.5644737
vt -0.9866205 0.5650075
vt -0.9864278 0.741516
vt -0.4975722 0.7409822
vt 0.02714252 0.741359
vt -0.493364 0.7287904
vt -0.5018757 1.081288
vt -0.001799166 1.008261
vt -0.4978099 0.7407014
vt -0.9869789 0.7412354
vt -0.9999752 0.9997187
vt -0.4974379 1.081396
vt 1.002484 0.7409653
vt 0.9778636 0.5144495
vt 0.4775979 0.5688244
vt 0.5022183 0.7953402
vt 0.4911298 0.5136648
vt -0.04385591 0.5683504
vt -0.02057356 0.7961203
vt 0.5144122 0.7414346
vt -0.02600127 0.7430214
vt -0.003325999 1.001662
vt 0.4965574 1.083943
vt 0.4965574 0.7430214
vt 0.4984318 1.087336
vt 0.9988053 0.9980415
vt 0.9818141 0.7398215
vt 0.4936185 0.7467281
vt -0.009991169 0.009444714
vt -0.5006765 0.01003158
vt -0.49001 0.5749159
vt 0.0006756783 0.574329
vt -0.499325 0.01003176
vt -0.9900081 0.009444773
vt -1.000675 0.574329
vt -0.5099916 0.5749159
vt 1.80006E-05 -0.003318667
vt 0.007314205 0.5646412
vt 0.4999823 0.5673362
vt 0.4926861 -0.000623703
vt 0.5000187 0.5673363
vt 0.9926857 0.5646414
vt 0.9999815 -0.003318667
vt 0.507315 -0.000623703
vt 0.00021106 0.7508174
vt -5.960464E-08 0.5743231
vt -0.500212 0.5749213
vt -0.5000009 0.7514157
vt -0.4997897 0.5749218
vt -1.000001 0.5743234
vt -1.000212 0.7508178
vt -0.5000008 0.7514162
vt -0.006955802 1.009471
vt -6.41346E-05 0.7454562
vt -0.4930446 0.7513331
vt -0.4999363 1.015348
vt -0.5069556 0.7513335
vt -0.9999363 0.7454568
vt -0.9930442 1.009471
vt -0.5000638 1.015348
vt 1.077668 0.6947126
vt 0.8683864 0.3441164
vt 0.4223331 0.61038
vt 0.6316152 0.9609761
vt 0.5000008 0.5640026
vt -0.0002108812 0.5646009
vt 2.384186E-07 0.7410887
vt 0.5002118 0.7404904
vt 0.9999354 1.005255
vt 0.992687 0.7409876
vt 0.5000648 0.7351074
vt 0.5073136 0.999375
vt 0.4999364 0.7351127
vt 0.007316053 0.7409877
vt 6.41346E-05 1.00525
vt 0.4926848 0.9993751
vt 0.4793333 -1.206252
vt -0.07821929 -0.9424654
vt -0.02797115 -0.4545178
vt 0.6108724 -0.5720259
vt -0.03662354 -0.5002828
vt -0.003051937 -0.002948642
vt 0.4880813 0.1861092
vt 0.499755 -0.5002828
vt 1.074173 -0.9454178
vt 0.5211276 -1.208275
vt 0.3899025 -0.5737773
vt 1.055492 -0.4558244
vt 0.4997478 -0.5002831
vt 0.510933 0.1861093
vt 1.0043 -0.005580306
vt 1.06383 -0.5002832
vt -0.4364949 -1.293866
vt -0.7201971 -0.691934
vt -0.02710551 -0.3652665
vt 0.1414219 -0.8438879
vt -0.3638815 -0.6756108
vt -0.7029711 0.09731996
vt -0.04825312 0.1342685
vt 0.2393706 -0.4109603
vt -0.9292105 -1.128997
vt -1.250348 -0.5816903
vt -0.6470954 -0.3171601
vt -0.3137066 -1.077442
vt -1.003771 -0.6283735
vt -1.127908 -0.1513816
vt -0.5602829 0.3147329
vt -0.2778226 -0.2867163
vt -0.01800609 -0.04495335
vt -0.1074755 0.988616
vt 1.15825 -0.05862784
vt 0.9438511 1.132232
vt -0.02143407 0.03783894
vt 0.4380223 1.01226
vt 1.072246 -0.06182933
vt 0.5026942 1.01573
vn 0 0 -1
vn 0 0 -1
vn 0 0 -1
vn 0 0 -1
vn 0.6125476 -0.5189494 0.5962189
vn 0.000379583 -0.7063643 0.7078484
vn -0.004347619 -0.0005229867 0.9999904
vn 0.6909373 -0.01034166 0.7228407
vn 0.000379583 -0.7063643 0.7078484
vn -0.5850363 -0.4792889 0.6542283
vn -0.6452329 0.005274317 0.7639677
vn -0.004347619 -0.0005229867 0.9999904
vn 0.6056292 -0.5191281 -0.6030914
vn 0.683642 -0.01023255 -0.7297457
vn -0.003732424 -0.000446463 -0.9999929
vn -0.001281208 -0.7066494 -0.7075628
vn -0.003732424 -0.000446463 -0.9999929
vn -0.6370242 0.005255746 -0.7708259
vn -0.5777414 -0.4865129 -0.6553777
vn -0.001281208 -0.7066494 -0.7075628
vn 0.6905898 0.02258123 0.722894
vn 0.6909373 -0.01034166 0.7228407
vn -0.004347619 -0.0005229867 0.9999904
vn -0.004348195 0.001143315 0.9999899
vn -0.004347619 -0.0005229867 0.9999904
vn -0.6452329 0.005274317 0.7639677
vn -0.6450436 -0.01152131 0.7640589
vn -0.004348195 0.001143315 0.9999899
vn 0.6905898 0.02258123 0.722894
vn -0.004348195 0.001143315 0.9999899
vn -0.003188235 0.6488407 0.7609176
vn 0.6443306 0.4797438 0.5955536
vn -0.004348195 0.001143315 0.9999899
vn -0.6450436 -0.01152131 0.7640589
vn -0.6229817 0.4378839 0.6481909
vn -0.003188235 0.6488407 0.7609176
vn -0.6368459 -0.01148131 -0.7709056
vn -0.6370242 0.005255746 -0.7708259
vn -0.003732424 -0.000446463 -0.9999929
vn -0.003732783 0.0009760155 -0.9999925
vn -0.003732424 -0.000446463 -0.9999929
vn 0.683642 -0.01023255 -0.7297457
vn 0.6832913 0.02234249 -0.729804
vn -0.003732783 0.0009760155 -0.9999925
vn 0.6832913 0.02234249 -0.729804
vn 0.6375361 0.5012068 -0.5850978
vn 0.004447825 0.6489966 -0.7607783
vn -0.003732783 0.0009760155 -0.9999925
vn 0.004447825 0.6489966 -0.7607783
vn -0.6146238 0.4267964 -0.6633871
vn -0.6368459 -0.01148131 -0.7709056
vn -0.003732783 0.0009760155 -0.9999925
vn -0.5850363 -0.4792889 0.6542283
vn -0.7265038 -0.6871519 -0.003813609
vn -0.9999615 0.008775486 -7.839002E-08
vn -0.6452329 0.005274317 0.7639677
vn -0.7265038 -0.6871519 -0.003813609
vn -0.5777414 -0.4865129 -0.6553777
vn -0.6370242 0.005255746 -0.7708259
vn -0.9999615 0.008775486 -7.839002E-08
vn 0.6125476 -0.5189494 0.5962189
vn 0.6909373 -0.01034166 0.7228407
vn 0.999888 -0.01496552 -9.852534E-08
vn 0.7220976 -0.6917869 0.002419828
vn 0.999888 -0.01496552 -9.852534E-08
vn 0.683642 -0.01023255 -0.7297457
vn 0.6056292 -0.5191281 -0.6030914
vn 0.7220976 -0.6917869 0.002419828
vn -0.6450436 -0.01152131 0.7640589
vn -0.6452329 0.005274317 0.7639677
vn -0.9999615 0.008775486 -7.839002E-08
vn -0.9998161 -0.01917704 -7.839922E-08
vn -0.9999615 0.008775486 -7.839002E-08
vn -0.6370242 0.005255746 -0.7708259
vn -0.6368459 -0.01148131 -0.7709056
vn -0.9998161 -0.01917704 -7.839922E-08
vn -0.6229817 0.4378839 0.6481909
vn -0.6450436 -0.01152131 0.7640589
vn -0.9998161 -0.01917704 -7.839922E-08
vn -0.7933586 0.608685 0.009206023
vn -0.9998161 -0.01917704 -7.839922E-08
vn -0.6368459 -0.01148131 -0.7709056
vn -0.6146238 0.4267964 -0.6633871
vn -0.7933586 0.608685 0.009206023
vn 0.6832913 0.02234249 -0.729804
vn 0.683642 -0.01023255 -0.7297457
vn 0.999888 -0.01496552 -9.852534E-08
vn 0.999466 0.03267693 -1.06146E-07
vn 0.999888 -0.01496552 -9.852534E-08
vn 0.6909373 -0.01034166 0.7228407
vn 0.6905898 0.02258123 0.722894
vn 0.999466 0.03267693 -1.06146E-07
vn 0.6375361 0.5012068 -0.5850978
vn 0.6832913 0.02234249 -0.729804
vn 0.999466 0.03267693 -1.06146E-07
vn 0.7721009 0.6353172 -0.01524029
vn 0.999466 0.03267693 -1.06146E-07
vn 0.6905898 0.02258123 0.722894
vn 0.6443306 0.4797438 0.5955536
vn 0.7721009 0.6353172 -0.01524029
vn 0.004447825 0.6489966 -0.7607783
vn 0.6375361 0.5012068 -0.5850978
vn 0.7721009 0.6353172 -0.01524029
vn 0.005296613 0.9999623 -0.006885546
vn 0.7721009 0.6353172 -0.01524029
vn 0.6443306 0.4797438 0.5955536
vn -0.003188235 0.6488407 0.7609176
vn 0.005296613 0.9999623 -0.006885546
vn -0.6146238 0.4267964 -0.6633871
vn 0.004447825 0.6489966 -0.7607783
vn 0.005296613 0.9999623 -0.006885546
vn -0.7933586 0.608685 0.009206023
vn 0.005296613 0.9999623 -0.006885546
vn -0.003188235 0.6488407 0.7609176
vn -0.6229817 0.4378839 0.6481909
vn -0.7933586 0.608685 0.009206023
vn -0.001281208 -0.7066494 -0.7075628
vn 0.001571003 -0.9999979 -0.001344002
vn 0.7220976 -0.6917869 0.002419828
vn 0.6056292 -0.5191281 -0.6030914
vn 0.001571003 -0.9999979 -0.001344002
vn 0.000379583 -0.7063643 0.7078484
vn 0.6125476 -0.5189494 0.5962189
vn 0.7220976 -0.6917869 0.002419828
vn -0.5777414 -0.4865129 -0.6553777
vn -0.7265038 -0.6871519 -0.003813609
vn 0.001571003 -0.9999979 -0.001344002
vn -0.001281208 -0.7066494 -0.7075628
vn -0.7265038 -0.6871519 -0.003813609
vn -0.5850363 -0.4792889 0.6542283
vn 0.000379583 -0.7063643 0.7078484
vn 0.001571003 -0.9999979 -0.001344002
vn 0 0 -1
vn 0 0 -1
vn 0 0 -1
vn 0 0 -1
vn -2.174727E-08 1.750949E-07 -1
vn -1.087363E-08 1.684669E-07 -1
vn -1.087363E-08 1.684669E-07 -1
vn 0 1.61839E-07 -1
g pb_Mesh-6612_0
f 3/3/3 2/2/2 1/1/1
f 3/3/3 4/4/4 2/2/2
f 8/8/8 7/7/7 5/5/5
f 7/7/7 6/6/6 5/5/5
f 11/11/11 9/9/9 12/12/12
f 11/11/11 10/10/10 9/9/9
f 13/13/13 16/16/16 15/15/15
f 13/13/13 15/15/15 14/14/14
f 20/20/20 19/19/19 18/18/18
f 17/17/17 20/20/20 18/18/18
f 24/24/24 23/23/23 22/22/22
f 24/24/24 22/22/22 21/21/21
f 27/27/27 26/26/26 25/25/25
f 27/27/27 25/25/25 28/28/28
f 30/30/30 29/29/29 32/32/32
f 31/31/31 30/30/30 32/32/32
f 36/36/36 34/34/34 33/33/33
f 35/35/35 34/34/34 36/36/36
f 40/40/40 39/39/39 37/37/37
f 39/39/39 38/38/38 37/37/37
f 43/43/43 42/42/42 44/44/44
f 42/42/42 41/41/41 44/44/44
f 46/46/46 48/48/48 47/47/47
f 46/46/46 45/45/45 48/48/48
f 49/49/49 51/51/51 50/50/50
f 52/52/52 51/51/51 49/49/49
f 56/56/56 54/54/54 53/53/53
f 55/55/55 54/54/54 56/56/56
f 60/60/60 58/58/58 57/57/57
f 59/59/59 58/58/58 60/60/60
f 62/62/62 64/64/64 63/63/63
f 61/61/61 64/64/64 62/62/62
f 65/65/65 67/67/67 66/66/66
f 68/68/68 67/67/67 65/65/65
f 69/69/69 71/71/71 70/70/70
f 69/69/69 72/72/72 71/71/71
f 75/75/75 74/74/74 73/73/73
f 75/75/75 73/73/73 76/76/76
f 80/80/80 78/78/78 77/77/77
f 80/80/80 79/79/79 78/78/78
f 83/83/83 81/81/81 84/84/84
f 83/83/83 82/82/82 81/81/81
f 88/88/88 87/87/87 85/85/85
f 87/87/87 86/86/86 85/85/85
f 89/89/89 92/92/92 91/91/91
f 90/90/90 89/89/89 91/91/91
f 95/95/95 94/94/94 93/93/93
f 96/96/96 95/95/95 93/93/93
f 98/98/98 97/97/97 100/100/100
f 99/99/99 98/98/98 100/100/100
f 103/103/103 102/102/102 101/101/101
f 103/103/103 101/101/101 104/104/104
f 106/106/106 105/105/105 108/108/108
f 106/106/106 108/108/108 107/107/107
f 111/111/111 110/110/110 109/109/109
f 111/111/111 109/109/109 112/112/112
f 114/114/114 113/113/113 116/116/116
f 114/114/114 116/116/116 115/115/115
f 118/118/118 117/117/117 119/119/119
f 117/117/117 120/120/120 119/119/119
f 122/122/122 121/121/121 123/123/123
f 121/121/121 124/124/124 123/123/123
f 126/126/126 125/125/125 127/127/127
f 125/125/125 128/128/128 127/127/127
f 130/130/130 129/129/129 131/131/131
f 129/129/129 132/132/132 131/131/131
f 135/135/135 134/134/134 133/133/133
f 135/135/135 136/136/136 134/134/134
f 139/139/139 138/138/138 137/137/137
f 139/139/139 140/140/140 138/138/138
