g pb_Mesh-6766
v 0 -0.296314 8.96682
v 0 0.02278256 9.390316
v 0 -0.2478917 8.96682
v 0 0.07120538 9.390316
v 0.0002121925 -0.4044733 8.51218
v 0 -0.296314 8.96682
v 0 -0.2478917 8.96682
v 0.0002121925 -0.4528956 8.51218
v 0.0004243851 -0.495204 7.93075
v 0.0002121925 -0.4528956 8.51218
v 0.0002121925 -0.4044733 8.51218
v 0.0004243851 -0.5436263 7.93075
v 0.0006365776 -0.495204 7.354563
v 0.0006365776 -0.5436263 7.354563
v 0.0008487701 -0.389437 6.739074
v 0.0008487701 -0.4378593 6.739074
v 0.001060963 -0.1898894 6.316775
v 0.0008487701 -0.4378593 6.739074
v 0.0008487701 -0.389437 6.739074
v 0.001060963 -0.2383118 6.316775
v 0.001273155 0.06151319 5.941772
v 0.001273155 0.01309085 5.941772
vt -0.8413801 -0.1396851
vt -1.04102 0.01073991
vt -0.8413801 -0.1168584
vt -1.04102 0.03356686
vt -0.627059 -0.1906724
vt -0.8413801 -0.1396852
vt -0.8413801 -0.1168584
vt -0.627059 -0.2134992
vt -0.352967 -0.2334438
vt -0.6270585 -0.2134992
vt -0.6270585 -0.1906725
vt -0.352967 -0.2562704
vt -0.08134747 -0.2334444
vt -0.08134747 -0.2562711
vt 0.2088001 -0.1835842
vt 0.2088001 -0.2064109
vt 0.4078746 -0.08951563
vt 0.2087994 -0.2064109
vt 0.2087994 -0.1835842
vt 0.4078746 -0.1123424
vt 0.5846531 0.02899786
vt 0.5846531 0.00617113
vn 1 0 0
vn 1 0 0
vn 1 0 0
vn 1 0 0
vn 0.9999999 0 0.000466727
vn 0.9999999 0 0.000466727
vn 0.9999999 0 0.000466727
vn 0.9999999 0 0.000466727
vn 0.9999999 0 0.0003649491
vn 0.9999999 0 0.0003649491
vn 0.9999999 0 0.0003649491
vn 0.9999999 0 0.0003649491
vn 0.9999999 0 0.0003682701
vn 0.9999999 0 0.0003682701
vn 0.9999999 0 0.0003447544
vn 0.9999999 0 0.0003447544
vn 0.9999999 0 0.0005024705
vn 0.9999999 0 0.0005024705
vn 0.9999999 0 0.0005024705
vn 0.9999999 0 0.0005024705
vn 0.9999998 0 0.0005658423
vn 0.9999998 0 0.0005658423
g pb_Mesh-6766_0
f 3/3/3 2/2/2 1/1/1
f 3/3/3 4/4/4 2/2/2
f 7/7/7 6/6/6 5/5/5
f 6/6/6 8/8/8 5/5/5
f 11/11/11 10/10/10 9/9/9
f 10/10/10 12/12/12 9/9/9
f 9/9/9 12/12/12 13/13/13
f 12/12/12 14/14/14 13/13/13
f 13/13/13 14/14/14 15/15/15
f 14/14/14 16/16/16 15/15/15
f 19/19/19 18/18/18 17/17/17
f 18/18/18 20/20/20 17/17/17
f 17/17/17 20/20/20 21/21/21
f 20/20/20 22/22/22 21/21/21
